<svg xmlns="http://www.w3.org/2000/svg" width="8192" height="2048" viewBox="0 0 2048 512" fill="none">
<defs>
  <linearGradient id="base" x1="0" y1="0" x2="2048" y2="512"><stop stop-color="#24103e"/><stop offset=".34" stop-color="#170c31"/><stop offset=".68" stop-color="#100b26"/><stop offset="1" stop-color="#09091c"/></linearGradient>
  <radialGradient id="violet" cx="0" cy="0" r="1" gradientTransform="translate(400 55) rotate(18) scale(720 290)"><stop stop-color="#5d27a8" stop-opacity=".52"/><stop offset=".48" stop-color="#3b1972" stop-opacity=".25"/><stop offset="1" stop-color="#24103e" stop-opacity="0"/></radialGradient>
  <radialGradient id="blue" cx="0" cy="0" r="1" gradientTransform="translate(1510 382) rotate(190) scale(690 250)"><stop stop-color="#1c4ea0" stop-opacity=".32"/><stop offset=".55" stop-color="#32176e" stop-opacity=".18"/><stop offset="1" stop-opacity="0"/></radialGradient>
  <linearGradient id="arc1" x1="0" y1="0" x2="1" y2="1"><stop stop-color="#7e42ff" stop-opacity="0"/><stop offset=".5" stop-color="#7e42ff" stop-opacity=".42"/><stop offset="1" stop-color="#2d72ff" stop-opacity="0"/></linearGradient>
  <linearGradient id="arc2" x1="0" y1="1" x2="1" y2="0"><stop stop-color="#ffb34d" stop-opacity="0"/><stop offset=".5" stop-color="#a64dff" stop-opacity=".28"/><stop offset="1" stop-color="#4a70ff" stop-opacity="0"/></linearGradient>
  <filter id="blur"><feGaussianBlur stdDeviation="14"/></filter>
</defs>
<rect width="2048" height="512" fill="url(#base)"/>
<rect width="2048" height="512" fill="url(#violet)"/>
<rect width="2048" height="512" fill="url(#blue)"/>
<path d="M-140 390C360 45 705-50 1110 18c420 70 650-5 1090-230" stroke="url(#arc1)" stroke-width="34" opacity=".42" filter="url(#blur)"/>
<path d="M-210 610C210 310 625 278 960 400c402 146 700 105 1235-62" stroke="url(#arc2)" stroke-width="30" opacity=".28" filter="url(#blur)"/>
<g opacity=".75">
 <circle cx="104" cy="118" r="2.5" fill="#8fdcff"/><circle cx="206" cy="302" r="2" fill="#ffd46f"/><circle cx="322" cy="76" r="2.2" fill="#c084ff"/>
 <circle cx="598" cy="188" r="1.7" fill="#ff78d7"/><circle cx="744" cy="54" r="2" fill="#ffe07a"/><circle cx="914" cy="332" r="2" fill="#6bdfff"/>
 <circle cx="1110" cy="104" r="1.8" fill="#ba7dff"/><circle cx="1298" cy="251" r="2.3" fill="#ffd65f"/><circle cx="1458" cy="91" r="1.6" fill="#6ccfff"/>
 <circle cx="1620" cy="362" r="2.5" fill="#ff72cb"/><circle cx="1812" cy="166" r="2" fill="#d18dff"/><circle cx="1950" cy="296" r="1.8" fill="#ffe78a"/>
</g>
<rect width="2048" height="512" fill="url(#base)" opacity=".12"/>
</svg>