<svg xmlns="http://www.w3.org/2000/svg" width="8192" height="8192" viewBox="0 0 1024 1024" fill="none" role="img" aria-labelledby="t d">
<title id="t">MatchApp TV Ai cosmic play emblem</title><desc id="d">Premium gold and electric-blue concentric play emblem with colorful orbiting stars.</desc>
<defs>
  <radialGradient id="core" cx="50%" cy="46%" r="62%"><stop offset="0" stop-color="#14234a"/><stop offset=".58" stop-color="#08142e"/><stop offset="1" stop-color="#050914"/></radialGradient>
  <linearGradient id="gold" x1="160" y1="130" x2="860" y2="900"><stop stop-color="#fff2a5"/><stop offset=".18" stop-color="#ffd64d"/><stop offset=".52" stop-color="#f6b914"/><stop offset=".76" stop-color="#ffef83"/><stop offset="1" stop-color="#c67a08"/></linearGradient>
  <linearGradient id="play" x1="420" y1="380" x2="650" y2="650"><stop stop-color="#8ff6ff"/><stop offset=".28" stop-color="#21c7ff"/><stop offset=".56" stop-color="#786bff"/><stop offset=".78" stop-color="#ff45c7"/><stop offset="1" stop-color="#ff9a3d"/></linearGradient>
  <filter id="goldGlow" x="-60%" y="-60%" width="220%" height="220%"><feGaussianBlur stdDeviation="9" result="b"/><feColorMatrix in="b" type="matrix" values="1 0 0 0 0.98 0 0.76 0 0 0.62 0 0 0.15 0 0 0 0 .9 0"/><feMerge><feMergeNode/><feMergeNode in="SourceGraphic"/></feMerge></filter>
  <filter id="blueGlow" x="-60%" y="-60%" width="220%" height="220%"><feGaussianBlur stdDeviation="8" result="b"/><feColorMatrix in="b" type="matrix" values="0 0 0 0 0 0 0.72 0 0 0.95 0 0 1 0 1 0 0 0 .95 0"/><feMerge><feMergeNode/><feMergeNode in="SourceGraphic"/></feMerge></filter>
  <filter id="starGlow" x="-100%" y="-100%" width="300%" height="300%"><feGaussianBlur stdDeviation="10" result="b"/><feMerge><feMergeNode in="b"/><feMergeNode in="SourceGraphic"/></feMerge></filter>
  <filter id="softShadow" x="-40%" y="-40%" width="180%" height="180%"><feDropShadow dx="0" dy="18" stdDeviation="24" flood-color="#000" flood-opacity=".5"/></filter>
</defs>
<g filter="url(#softShadow)">
  <circle cx="512" cy="512" r="348" fill="url(#core)" opacity=".98"/>
  <circle cx="512" cy="512" r="382" stroke="url(#gold)" stroke-width="7" filter="url(#goldGlow)"/>
  <circle cx="512" cy="512" r="320" stroke="#10c9ff" stroke-width="8" filter="url(#blueGlow)"/>
  <circle cx="512" cy="512" r="244" stroke="url(#gold)" stroke-width="46" filter="url(#goldGlow)"/>
  <circle cx="512" cy="512" r="135" fill="url(#core)" stroke="url(#gold)" stroke-width="30" filter="url(#goldGlow)"/>
  <path d="M470 433L660 512L470 591Z" fill="url(#play)" stroke="#ffe783" stroke-width="15" stroke-linejoin="round" filter="url(#goldGlow)"/>
</g>
<g filter="url(#starGlow)">
  <path d="M279 193l13 27 30 4-22 21 5 30-26-14-27 14 6-30-22-21 30-4 13-27z" fill="#c88cff"/>
  <path d="M789 292l13 27 30 4-22 21 5 30-26-14-27 14 6-30-22-21 30-4 13-27z" fill="#ffd642"/>
  <path d="M188 626l13 27 30 4-22 21 5 30-26-14-27 14 6-30-22-21 30-4 13-27z" fill="#67ff5e"/>
  <path d="M815 690l13 27 30 4-22 21 5 30-26-14-27 14 6-30-22-21 30-4 13-27z" fill="#56e9ff"/>
  <path d="M493 826l13 27 30 4-22 21 5 30-26-14-27 14 6-30-22-21 30-4 13-27z" fill="#ff4fd8"/>
</g>
<g opacity=".95">
  <circle cx="704" cy="178" r="8" fill="#fff2b0"/><circle cx="714" cy="178" r="2" fill="#fff"/>
  <circle cx="826" cy="484" r="6" fill="#9cecff"/><circle cx="329" cy="773" r="5" fill="#ffe76f"/>
</g>
</svg>